<svg width="147" height="61" viewBox="0 0 147 61" fill="none" xmlns="http://www.w3.org/2000/svg">
<path d="M28.478 46.0102H16.6077V23.2448C17.6408 23.5417 19.869 23.9772 22.5428 23.9772C25.3585 23.9772 27.3031 23.5417 28.478 23.2448V46.0102ZM16 18.0582C16 15.4253 18.3092 14 22.5428 14C26.7764 14 29.0857 15.4253 29.0857 18.0582C29.0857 20.4139 26.7764 21.9778 22.5428 21.9778C18.3092 21.9778 16 20.4139 16 18.0582Z" fill="#00A3FF"/>
<path d="M42.5625 46.0102H30.6922V15.1284H42.5625V46.0102Z" fill="#00A3FF"/>
<path d="M56.647 45.9904H44.7768V21.6017H56.6673V23.3041C56.1812 24.2939 55.0063 26.7882 54.3581 29.7972H54.905C56.7888 23.6407 60.1514 20.4535 65.7422 20.4535C70.0568 20.4535 73.0953 22.4529 74.6348 26.3527C74.2701 27.3821 73.9055 28.5303 73.6422 29.7972H74.1891C76.073 23.6407 79.4558 20.4535 85.0263 20.4535C91.6299 20.4535 95.2355 25.0264 95.2355 33.7367V45.9904H83.3653V34.2909C83.3653 30.2723 82.1904 28.4907 79.9217 28.4907C77.3491 28.4907 75.9312 30.6485 75.9312 34.4097V45.9904H64.0609V34.2909C64.0609 30.2723 62.9063 28.4907 60.6376 28.4907C58.0447 28.4907 56.647 30.6485 56.647 34.4097V45.9904Z" fill="#00A3FF"/>
<path d="M114.843 47C103.378 47 97.6856 41.853 97.6856 33.7367C97.6856 25.4817 103.378 20.3347 114.843 20.3347C126.308 20.3347 132 25.4817 132 33.7367C132 41.853 126.308 47 114.843 47ZM109.556 33.6773C109.556 37.4187 112.23 38.9628 114.843 38.9628C117.456 38.9628 120.13 37.4187 120.13 33.6773C120.13 29.916 117.456 28.3719 114.843 28.3719C112.23 28.3719 109.556 29.916 109.556 33.6773Z" fill="#00A3FF"/>
</svg>
