<svg width="122" height="108" viewBox="0 0 122 108" fill="none" xmlns="http://www.w3.org/2000/svg">
<path fill-rule="evenodd" clip-rule="evenodd" d="M52.4727 43.4141C52.6709 42.2735 52.6283 42.2641 52.6869 42.1821C54.8508 39.1516 53.8162 46.7281 56.9141 50.2577C64.8339 59.2806 72.5855 52.658 73.0633 52.9472C76.5416 55.052 55.4668 63.9235 52.4727 43.4141ZM63.0683 36.1883C63.8515 33.0488 64.8006 36.0472 65.6542 37.5219C66.691 39.3128 63.3075 39.4904 63.0683 36.1883ZM71.3448 33.0249C72.1888 29.9199 74.4779 34.5414 73.9886 35.5129C73.0697 37.3381 71.452 33.2927 71.3448 33.0249Z" fill="#CCD471"/>
<path fill-rule="evenodd" clip-rule="evenodd" d="M71.4425 62.1387L55.0098 65.6727C50.0382 66.4708 39.5263 68.7809 38.8182 67.3137C31.3588 51.8569 29.1304 33.143 30.231 32.5367C36.1272 29.2884 50.5489 25.1065 52.361 24.581C52.5033 24.5398 53.551 24.1702 51.7625 23.2318C43.7404 19.023 41.8724 17.3988 39.064 17.7614C34.3096 18.3753 38.435 11.2711 41.2254 14.5245C41.5548 14.9085 41.5097 15.984 42.3115 16.3317C43.5517 16.8694 57.2051 22.7889 58.1419 22.5983C58.2109 22.5843 68.4084 11.827 68.209 9.14998C67.9038 5.05663 75.7681 6.87622 72.4532 9.82216C71.5537 10.6215 70.3243 10.5483 69.8278 11.2733C63.2109 20.9344 63.0981 21.8193 64.1554 21.5812C81.0902 17.7683 87.0102 18.1835 87.1242 18.3551C92.2024 26.009 98.9637 52.5189 95.717 53.8871C93.5844 54.7858 93.6085 54.7145 91.4393 55.6249C88.47 56.8167 83.6684 58.5094 79.3335 59.8964C76.3116 60.8631 73.5165 61.6813 71.7271 62.0774C71.6308 62.0984 71.5359 62.1189 71.4425 62.1387ZM78.4188 56.4552C84.0082 54.6414 92.2383 51.8116 92.2752 50.8541C92.6003 42.4129 86.6504 21.9713 83.2692 21.9413C82.2628 21.9325 66.5581 23.8051 52.821 27.9131C51.2854 28.3722 34.6916 33.3344 34.2009 35.0757C33.4141 37.8683 39.2897 64.6301 43.0244 64.0733C51.428 62.8207 58.1834 61.4735 63.2767 60.3561C68.2118 59.2733 71.5862 58.4065 73.3871 58.0506C73.4166 58.0391 73.4458 58.0289 73.4746 58.02C73.9514 57.873 75.9216 57.2655 78.4188 56.4552Z" fill="#CCD471"/>
<path d="M62.7753 67.3733C63.008 66.7039 63.7498 66.3464 64.4318 66.5749C65.1137 66.8034 65.4777 67.5314 65.245 68.2008L58.9977 86.1683C58.8389 86.625 58.432 86.9554 57.9452 87.0228L42.0341 89.2267C41.3206 89.3255 40.6605 88.8377 40.5598 88.1373C40.4592 87.4369 40.9561 86.789 41.6697 86.6901L56.7866 84.5964L62.7753 67.3733ZM71.2094 66.5749C71.8914 66.3464 72.6331 66.7039 72.8659 67.3733L78.8543 84.5964L93.9715 86.6901C94.685 86.789 95.182 87.4369 95.0813 88.1373C94.9807 88.8377 94.3206 89.3255 93.6071 89.2267L77.696 87.0228C77.2092 86.9554 76.8023 86.625 76.6435 86.1683L70.3962 68.2008C70.1634 67.5314 70.5274 66.8034 71.2094 66.5749Z" fill="#CCD471"/>
</svg>
